<svg xmlns="http://www.w3.org/2000/svg" width="57.007" height="57.007" viewBox="0 0 57.007 57.007">
  <path id="Icon_awesome-arrow-circle-down" data-name="Icon awesome-arrow-circle-down" d="M57.569,29.066a28.5,28.5,0,1,1-28.5-28.5A28.5,28.5,0,0,1,57.569,29.066Zm-16.5-3.322-8.321,8.677V13.435a2.752,2.752,0,0,0-2.758-2.758H28.146a2.752,2.752,0,0,0-2.758,2.758V34.422l-8.321-8.677a2.761,2.761,0,0,0-3.942-.046l-1.253,1.264a2.747,2.747,0,0,0,0,3.9L27.112,46.11a2.747,2.747,0,0,0,3.9,0L46.26,30.859a2.747,2.747,0,0,0,0-3.9L45.007,25.7a2.761,2.761,0,0,0-3.942.046Z" transform="translate(-0.563 -0.563)" fill="#387BA8"/>
</svg>
