<svg xmlns="http://www.w3.org/2000/svg" width="27.4" height="39.855" viewBox="0 0 27.4 39.855">
  <path id="Icon_awesome-lightbulb" data-name="Icon awesome-lightbulb" d="M7.477,35.367a2.492,2.492,0,0,0,.417,1.377l1.33,2A2.49,2.49,0,0,0,11.3,39.855h4.8a2.49,2.49,0,0,0,2.074-1.112l1.33-2a2.49,2.49,0,0,0,.417-1.377l0-2.985H7.473l0,2.985ZM0,13.7a13.624,13.624,0,0,0,3.391,9.012,22.37,22.37,0,0,1,4.064,7.119c0,.02.005.04.009.061H19.937c0-.02.005-.04.009-.061a22.37,22.37,0,0,1,4.064-7.119A13.7,13.7,0,1,0,0,13.7ZM13.7,7.473A6.235,6.235,0,0,0,7.473,13.7a1.245,1.245,0,1,1-2.491,0A8.728,8.728,0,0,1,13.7,4.982a1.245,1.245,0,1,1,0,2.491Z" fill="#6ea8cf"/>
</svg>
