<svg id="Layer_1" data-name="Layer 1" xmlns="http://www.w3.org/2000/svg" xmlns:xlink="http://www.w3.org/1999/xlink" viewBox="0 0 158 158"><defs><style>.cls-1{fill:none;}.cls-2{clip-path:url(#clip-path);}.cls-3{fill:#fff;}</style><clipPath id="clip-path"><rect class="cls-1" x="0.78" y="12" width="157" height="134"/></clipPath></defs><g class="cls-2"><path class="cls-3" d="M6.72,65.83a26.33,26.33,0,0,0-4.3,2A3,3,0,0,0,.8,70.09a3.19,3.19,0,0,0,1.35,2.59,15.5,15.5,0,0,0,2.58,1.73c.7.4,1.41.78,2.13,1.17,1,.54,2.08,1.1,3.06,1.72,13.35,8.42,25.5,15.88,38.83,21.9l-.09,1.44c-.09,1.35-.19,2.74-.19,4.11q0,3.12,0,6.24c0,6.59-.07,13.4.15,20.11.08,2.41.94,4.14,2.43,4.86s3.56.32,5.65-1.24c.75-.56,1.52-1.2,2.35-1.93L70,123l3.33-3,.08.06,3.08,2.67c3.51,3,7.14,6.18,10.68,9.3,1,.89,2,1.77,3,2.65,3.11,2.69,6.33,5.47,9.22,8.45a6.45,6.45,0,0,0,4.81,2.32,8.87,8.87,0,0,0,2.29-.34c2.61-.72,4.29-2.32,5.46-5.21,4.4-10.85,8.91-21.88,13.26-32.55L136,81.12a546.11,546.11,0,0,0,19.86-57.6,40.12,40.12,0,0,0,1.42-6.94,3.72,3.72,0,0,0-.89-3.07,4,4,0,0,0-1.54-.86,4,4,0,0,0-1.76-.12,12,12,0,0,0-2.28.52l-.1,0-5,1.48c-3.88,1.13-7.9,2.3-11.8,3.63C105.71,27.83,77.15,38.32,49,49.38c-8.12,3.18-16.4,6.4-24.4,9.51ZM60.33,95.54c1.55-1.3,3-2.53,4.53-3.69Q73.74,85,82.62,78.23c11.65-8.92,23.69-18.13,35.46-27.29,3.6-2.8,7-5.94,10.32-9,1.14-1,2.27-2.08,3.42-3.11A4.25,4.25,0,0,0,133.41,34a.58.58,0,0,0-.14-.24.65.65,0,0,0-.21-.16.6.6,0,0,0-.27-.06.57.57,0,0,0-.26,0c-.36.15-.7.27-1,.39a14.57,14.57,0,0,0-2,.86C107.65,46.73,88.64,62.4,70.26,77.55,66.1,81,62.19,84.51,58,88.25Q55.4,90.64,52.71,93l-41-22.36a5.28,5.28,0,0,1,.75-.38q9.89-3.75,19.77-7.53C48.36,56.61,65,50.25,81.52,44.19c14.68-5.39,29.7-10.61,44.22-15.66l14.49-5.05c1.87-.65,3.76-1.17,5.76-1.71l1.59-.43C139.53,47,129.27,72.2,119.34,96.57c-5.22,12.81-10.62,26-15.66,39.26C90,124.72,76.68,113,63.82,101.61L58.59,97c.6-.5,1.18-1,1.74-1.46ZM68,115.13l-11.76,10-.93-21.83Z"/></g></svg>