<?xml version="1.0" encoding="UTF-8"?><svg id="Layer_2" xmlns="http://www.w3.org/2000/svg" viewBox="0 0 159.47 119.6"><defs><style>.cls-1{fill:#fff;}</style></defs><g id="Layer_1-2"><path class="cls-1" d="M144.52,0c8.25,0,14.95,6.69,14.95,14.95,0,4.7-2.21,9.13-5.98,11.96l-67.77,50.83c-3.55,2.65-8.41,2.65-11.96,0L5.98,26.91C2.22,24.08,0,19.65,0,14.95,0,6.69,6.69,0,14.95,0H144.52ZM67.77,85.71c7.1,5.33,16.82,5.33,23.92,0l67.77-50.83V99.67c0,10.99-8.94,19.93-19.93,19.93H19.93c-11.01,0-19.93-8.94-19.93-19.93V34.88l67.77,50.83Z"/></g></svg>