<svg xmlns="http://www.w3.org/2000/svg" width="133.001" height="133.001" viewBox="0 0 133.001 133.001">
  <g id="Group_14" data-name="Group 14" transform="translate(0)">
    <path id="Path_13" data-name="Path 13" d="M395,178.5a66.323,66.323,0,0,1-4.83,24.928l-.022.051v0a66.209,66.209,0,0,1-8.419,14.882q-.995,1.328-2.052,2.6c-.258.311-.519.62-.781.925q-2.022,2.346-4.254,4.5-.519.5-1.051.992l-.248.228a66.481,66.481,0,0,1-5.44,4.466q-1.9,1.408-3.907,2.674-.44.28-.885.551-.773.472-1.56.923-1.027.59-2.08,1.143c-.283.151-.569.3-.854.443-.417.214-.836.421-1.259.624-.073.035-.146.071-.218.1-.275.134-.555.264-.834.393A65.885,65.885,0,0,1,345,242.937l-.063.016c-.254.065-.51.128-.765.189-.191.047-.384.092-.576.136a.489.489,0,0,1-.073.018c-.4.092-.791.181-1.19.262-.224.047-.449.094-.673.14-.136.03-.273.055-.409.081l-.512.1c-.094.02-.189.035-.285.051-.216.039-.433.079-.647.116-.366.063-.736.124-1.1.179-.268.041-.533.081-.8.118-.315.045-.63.087-.946.126-.087.014-.173.024-.26.033l-.336.041c-.226.028-.453.053-.681.077-.118.014-.234.026-.352.037q-.336.035-.673.065c-.289.028-.578.051-.87.075-.354.028-.706.053-1.062.075-.228.014-.456.028-.687.039-.586.031-1.173.053-1.763.069-.293.008-.588.014-.883.018h-.006c-.293,0-.588.006-.883.006a66.733,66.733,0,0,1-8.942-.6q-3.261-.437-6.418-1.184c-.085-.02-.169-.039-.252-.061-.212-.049-.423-.1-.634-.155-.187-.047-.372-.1-.559-.146a65.981,65.981,0,0,1-13.89-5.35l-.067-.035c-.128-.067-.254-.132-.38-.2q-.416-.218-.828-.445-2.346-1.29-4.572-2.758-.573-.375-1.133-.761l-.356-.248-.37-.26q-.487-.345-.968-.7-1.992-1.464-3.866-3.071a66.842,66.842,0,0,1-11.64-12.956q-1.726-2.514-3.223-5.19A66.505,66.505,0,1,1,395,178.5Z" transform="translate(-262 -112)" fill="#BA45BA"/>
    <path id="Path_14" data-name="Path 14" d="M654.35,404.892c.213-.049.423-.1.634-.155.187-.047.372-.1.559-.146.01-.392.024-.822.037-1.289.116-3.652.39-9.53,1.035-16.613q.053-.57.106-1.147c.23-2.4.5-4.925.822-7.541.01-.087.022-.171.031-.258.262-2.121.559-4.3.893-6.518q.351-2.329.759-4.708c.02-.11.039-.222.059-.333.079-.458.159-.915.242-1.375.23-1.281.476-2.57.734-3.858.907-4.533,1.987-9.094,3.276-13.53a108.4,108.4,0,0,1,4.826-13.5,66.666,66.666,0,0,1,5.261-9.8l.089-.134a37.622,37.622,0,0,1,8.921-9.678l-.7-.956a38.637,38.637,0,0,0-8.9,9.464l-.039.057a64.429,64.429,0,0,0-5.3,9.5,103.739,103.739,0,0,0-5.052,13.648q-1.936,6.5-3.473,14.081-.54,2.671-1.031,5.474c-.055.319-.11.637-.165.958,0,0,0,.01,0,.014-.085.492-.165.984-.248,1.482q-.307,1.88-.578,3.73-.419,2.851-.757,5.6-.112.909-.216,1.8-.148,1.263-.279,2.493-.186,1.712-.34,3.351l-.03.3c-.016.173-.031.346-.047.517C654.678,394.437,654.429,401.4,654.35,404.892Z" transform="translate(-577.156 -273.735)" opacity="0.2"/>
    <path id="Path_15" data-name="Path 15" d="M731.01,613.188l.067-.035c.405-.21.807-.425,1.208-.645.132-1.57.309-3.3.541-5.11.049-.374.1-.753.154-1.135.028-.2.057-.411.087-.62.232-1.6.508-3.246.838-4.9,1.344-6.76,3.575-13.67,7.28-17.935.2-.23.4-.451.612-.665a13.312,13.312,0,0,1,1.694-1.485l-.7-.954a15.164,15.164,0,0,0-2.322,2.123q-.369.41-.72.854c-3.41,4.291-5.538,10.644-6.865,16.934-.346,1.641-.637,3.28-.885,4.875q-.095.626-.181,1.24C731.433,608.429,731.179,610.983,731.01,613.188Z" transform="translate(-638.734 -487.681)" opacity="0.2"/>
    <ellipse id="Ellipse_22" data-name="Ellipse 22" cx="5.92" cy="5.92" rx="5.92" ry="5.92" transform="translate(106.174 28.704)" opacity="0.2"/>
    <ellipse id="Ellipse_23" data-name="Ellipse 23" cx="5.92" cy="5.92" rx="5.92" ry="5.92" transform="translate(104.268 79.663)" opacity="0.2"/>
    <path id="Path_16" data-name="Path 16" d="M680.017,288.908a26.3,26.3,0,0,1-1.516,13.5,23.964,23.964,0,0,1-4.546-25.647A26.3,26.3,0,0,1,680.017,288.908Z" transform="translate(-591.424 -244.34)" opacity="0.2"/>
    <path id="Path_17" data-name="Path 17" d="M756.989,389.019a26.425,26.425,0,0,1-13.543.885,24.11,24.11,0,0,1,24.463-8.945A26.425,26.425,0,0,1,756.989,389.019Z" transform="translate(-648.723 -327.639)" opacity="0.2"/>
    <path id="Path_18" data-name="Path 18" d="M779.321,628.715a18.43,18.43,0,0,1-9.5.6,16.8,16.8,0,0,1,17.147-6.27A18.43,18.43,0,0,1,779.321,628.715Z" transform="translate(-669.91 -522.209)" opacity="0.2"/>
    <path id="Path_19" data-name="Path 19" d="M701.96,648.27l.24.124C702.176,648.65,702.119,648.807,701.96,648.27Z" transform="translate(-615.399 -542.761)" fill="#2f2e41"/>
    <path id="Path_20" data-name="Path 20" d="M703.257,646.828c0,.028.006.057.008.085l-.085-.043c0-.026,0-.053.008-.081C703.207,646.445,703.184,646.037,703.257,646.828Z" transform="translate(-616.379 -541.236)" fill="#2f2e41"/>
    <ellipse id="Ellipse_24" data-name="Ellipse 24" cx="32.308" cy="32.308" rx="32.308" ry="32.308" transform="translate(29.015 31.565)" fill="#2f2e41"/>
    <ellipse id="Ellipse_25" data-name="Ellipse 25" cx="19.565" cy="19.565" rx="19.565" ry="19.565" transform="translate(44.417 55.732)" fill="#d0cde1"/>
    <path id="Path_21" data-name="Path 21" d="M481.426,578.807l-.024.006-4.551,1.092-9.475,2.274-1.293.311-14.41,3.457-1.224.3-34.96,8.389a65.65,65.65,0,0,1-6.916-3.115l-.067-.035c-.128-.067-.254-.132-.38-.2q-.416-.218-.828-.445-2.346-1.29-4.572-2.758-.572-.375-1.133-.761l-.356-.248-.37-.26q-.487-.345-.968-.7c3.4-6.172,11.482-10.274,19.568-12.519,6.1-1.7,7.445-7.27,7.329-12.23a28.907,28.907,0,0,0-.287-3.38,32.948,32.948,0,0,0-1.173-5.261l19.566.653,2.019,4.651a10.518,10.518,0,0,0-.053,1.539c.153,3.815,2.508,6.282,5.414,7.874.378.207.765.4,1.159.578a30.665,30.665,0,0,0,10.374,2.314,19.967,19.967,0,0,1,5.133.1q.62.094,1.2.226a17.341,17.341,0,0,1,6.318,2.827,18.019,18.019,0,0,1,2.048,1.7A16.268,16.268,0,0,1,481.426,578.807Z" transform="translate(-372.769 -466.01)" fill="#d0cde1"/>
    <path id="Path_22" data-name="Path 22" d="M758.624,682.564l-.248.228a66.478,66.478,0,0,1-5.44,4.466q-1.9,1.408-3.907,2.674-.44.28-.885.551-.773.472-1.56.923-1.027.59-2.08,1.143c-.283.151-.569.3-.854.443-.417.214-.836.421-1.259.624-.073.035-.146.071-.218.1l-.832-.691,9.774-11.946,1.965-2.4s.785,0,2.585,1.31a25.764,25.764,0,0,1,2.813,2.428C758.526,682.467,758.575,682.515,758.624,682.564Z" transform="translate(-647.031 -567.187)" fill="#d0cde1"/>
    <path id="Path_23" data-name="Path 23" d="M517.815,671.787a2.243,2.243,0,0,1-.11.362,66.446,66.446,0,0,1-5.44,4.466,23.207,23.207,0,0,1-5.074,1.206s.148.74.281,2.019q-.773.472-1.56.923-1.027.59-2.08,1.143c-.283.151-.569.3-.854.443-.417.214-.836.421-1.259.624-.073.035-.146.071-.218.1-.275.134-.555.264-.834.394a65.9,65.9,0,0,1-11.305,4.012l-.063.016c-.254.065-.51.128-.765.189-.191.047-.384.092-.576.136a.481.481,0,0,1-.073.018c-.4.093-.791.181-1.19.262-.224.047-.449.094-.673.14-.136.03-.273.055-.409.081l-.512.1c-.094.02-.189.035-.285.051-.216.039-.433.079-.647.116-.366.063-.736.124-1.1.179-.268.041-.533.081-.8.118-.315.045-.63.086-.946.126-.087.014-.173.024-.26.033l-.336.041c-.226.028-.453.053-.681.077-.118.014-.234.026-.352.037q-.336.035-.673.065c-.289.028-.578.051-.87.075-.354.028-.706.053-1.062.075-.228.014-.456.027-.687.039-.586.032-1.173.053-1.763.069-.293.008-.588.014-.883.018h-.006c-.293,0-.588.006-.883.006a66.7,66.7,0,0,1-8.942-.6q-3.261-.437-6.418-1.184c-.085-.02-.169-.039-.252-.061-.212-.049-.423-.1-.634-.155-.187-.047-.372-.1-.559-.146a65.981,65.981,0,0,1-13.89-5.35l-.067-.035c-.128-.067-.254-.132-.38-.2,10.8-2.516,27.865-6.485,42.674-9.885l1.238-.283c5.47-1.255,10.593-2.424,14.927-3.4l1.318-.3c4.657-1.047,8.273-1.841,10.235-2.239a16.024,16.024,0,0,1,1.6-.281l4.094,6.345Z" transform="translate(-406.361 -556.545)" fill="#2f2e41"/>
    <ellipse id="Ellipse_26" data-name="Ellipse 26" cx="9.624" cy="9.624" rx="9.624" ry="9.624" transform="translate(22.141 30.877)" fill="#2f2e41"/>
    <ellipse id="Ellipse_27" data-name="Ellipse 27" cx="9.624" cy="9.624" rx="9.624" ry="9.624" transform="translate(81.257 28.127)" fill="#2f2e41"/>
    <path id="Path_24" data-name="Path 24" d="M663.029,243.623a9.623,9.623,0,0,1,8.591-9.567,9.624,9.624,0,1,0,0,19.133A9.623,9.623,0,0,1,663.029,243.623Z" transform="translate(-582.459 -209.996)" fill="#2f2e41"/>
    <path id="Path_25" data-name="Path 25" d="M351.514,304.967a9.623,9.623,0,0,1-.558-12.847,9.624,9.624,0,1,0,13.391,13.667,9.623,9.623,0,0,1-12.833-.82Z" transform="translate(-330.503 -256.682)" fill="#2f2e41"/>
    <path id="Path_26" data-name="Path 26" d="M489.491,359.777c-11.389,0-20.622,5.386-20.622,12.029,0,2.973,1.856,5.689,4.919,7.788l3.97-2.876-1.08,4.506c.448.208.905.409,1.382.594l5.931-6.919v8.5a34.617,34.617,0,0,0,5.5.436c11.389,0,20.622-5.386,20.622-12.029S500.88,359.777,489.491,359.777Z" transform="translate(-428.168 -311.028)" fill="#2f2e41"/>
    <path id="Path_27" data-name="Path 27" d="M674.644,303.876s-1.495,6.874,7.845,9.624Z" transform="translate(-593.387 -266.125)" fill="#2f2e41"/>
    <path id="Path_28" data-name="Path 28" d="M440.8,310.235s3.437,7.685-6.874,11.122Z" transform="translate(-400.104 -271.233)" fill="#2f2e41"/>
    <ellipse id="Ellipse_28" data-name="Ellipse 28" cx="1.63" cy="3.913" rx="1.63" ry="3.913" transform="translate(42.118 75.883) rotate(-15.639)" fill="#d0cde1"/>
    <ellipse id="Ellipse_29" data-name="Ellipse 29" cx="3.913" cy="1.63" rx="3.913" ry="1.63" transform="translate(82.005 79.755) rotate(-86.476)" fill="#d0cde1"/>
  </g>
</svg>
