<svg xmlns="http://www.w3.org/2000/svg" width="149.001" height="149.001" viewBox="0 0 149.001 149.001">
  <g id="Group_14" data-name="Group 14" transform="translate(0)">
    <path id="Path_13" data-name="Path 13" d="M411,186.5a74.3,74.3,0,0,1-5.411,27.927c-.009.02-.015.037-.024.057v0a74.173,74.173,0,0,1-9.432,16.672q-1.114,1.488-2.3,2.914c-.289.348-.582.694-.875,1.036q-2.265,2.628-4.765,5.036-.582.562-1.177,1.111l-.278.256a74.471,74.471,0,0,1-6.095,5q-2.133,1.577-4.377,3-.493.314-.992.617-.866.529-1.748,1.034-1.151.661-2.33,1.281c-.317.17-.637.333-.957.5-.467.24-.937.472-1.411.7-.082.04-.163.079-.245.117-.309.15-.622.3-.935.441a73.812,73.812,0,0,1-12.665,4.494l-.071.018c-.284.073-.571.143-.857.212-.214.053-.43.1-.646.152a.547.547,0,0,1-.082.02c-.443.1-.886.2-1.333.293-.251.053-.5.106-.754.157-.152.033-.306.062-.458.09l-.573.11c-.106.022-.212.04-.32.057-.242.044-.485.088-.725.13-.41.071-.824.139-1.237.2-.3.046-.6.09-.9.132-.353.051-.705.1-1.06.141-.1.015-.194.026-.291.037l-.377.046c-.254.031-.507.06-.763.086-.132.015-.262.029-.395.042q-.377.04-.754.073c-.324.031-.648.057-.974.084-.4.031-.791.06-1.19.084-.256.015-.511.031-.769.044-.657.035-1.314.06-1.975.077-.328.009-.659.015-.99.02h-.007c-.328,0-.659.007-.99.007a74.759,74.759,0,0,1-10.018-.67q-3.653-.489-7.19-1.327c-.095-.022-.19-.044-.282-.068-.238-.055-.474-.115-.71-.174-.209-.053-.417-.108-.626-.163a73.919,73.919,0,0,1-15.561-5.993l-.075-.04c-.143-.075-.284-.148-.425-.225q-.466-.245-.928-.5-2.628-1.445-5.122-3.09-.641-.42-1.27-.853c-.134-.093-.267-.185-.4-.278l-.414-.291q-.545-.387-1.084-.782-2.232-1.64-4.331-3.441a74.883,74.883,0,0,1-13.04-14.514q-1.934-2.817-3.61-5.815A74.506,74.506,0,1,1,411,186.5Z" transform="translate(-262 -112)" fill="#8865B8"/>
    <path id="Path_14" data-name="Path 14" d="M654.35,415.9c.238-.055.474-.115.71-.174.209-.053.417-.108.626-.163.011-.439.026-.921.042-1.444.13-4.091.436-10.677,1.159-18.612q.06-.638.119-1.285c.258-2.689.56-5.517.921-8.449.011-.1.024-.192.035-.289.293-2.376.626-4.816,1-7.3q.393-2.609.851-5.275l.066-.373c.088-.514.179-1.025.271-1.541.258-1.435.533-2.879.822-4.322,1.016-5.078,2.226-10.188,3.67-15.158A121.421,121.421,0,0,1,670.05,336.4a74.677,74.677,0,0,1,5.894-10.983l.1-.15a42.148,42.148,0,0,1,9.994-10.842l-.785-1.071a43.284,43.284,0,0,0-9.972,10.6l-.044.064a72.178,72.178,0,0,0-5.934,10.637,116.24,116.24,0,0,0-5.66,15.29q-2.169,7.28-3.89,15.775-.605,2.992-1.155,6.132c-.062.357-.123.714-.185,1.073,0,0,0,.011,0,.015-.095.551-.185,1.1-.278,1.66q-.344,2.106-.648,4.179-.469,3.194-.849,6.277-.126,1.018-.242,2.021-.165,1.415-.313,2.793-.208,1.918-.381,3.754l-.033.337c-.018.194-.035.388-.053.58C654.718,404.192,654.438,411.988,654.35,415.9Z" transform="translate(-567.87 -268.969)" opacity="0.2"/>
    <path id="Path_15" data-name="Path 15" d="M731.01,617.217l.075-.04c.454-.236.9-.476,1.353-.723.148-1.759.346-3.692.606-5.724.055-.419.11-.844.172-1.272.031-.229.064-.461.1-.694.26-1.79.569-3.637.939-5.493,1.505-7.573,4-15.314,8.155-20.093.223-.258.45-.5.686-.745a14.91,14.91,0,0,1,1.9-1.664l-.785-1.069a17,17,0,0,0-2.6,2.378q-.413.46-.807.957c-3.82,4.807-6.2,11.924-7.69,18.971-.388,1.838-.714,3.674-.992,5.462q-.106.7-.2,1.389C731.484,611.885,731.2,614.746,731.01,617.217Z" transform="translate(-627.633 -476.612)" opacity="0.2"/>
    <circle id="Ellipse_22" data-name="Ellipse 22" cx="6.632" cy="6.632" r="6.632" transform="translate(118.947 32.157)" opacity="0.2"/>
    <circle id="Ellipse_23" data-name="Ellipse 23" cx="6.632" cy="6.632" r="6.632" transform="translate(116.811 89.247)" opacity="0.2"/>
    <path id="Path_16" data-name="Path 16" d="M680.967,290.369a29.458,29.458,0,0,1-1.7,15.119,26.847,26.847,0,0,1-5.093-28.733A29.46,29.46,0,0,1,680.967,290.369Z" transform="translate(-581.718 -240.441)" opacity="0.2"/>
    <path id="Path_17" data-name="Path 17" d="M758.618,390.049a29.6,29.6,0,0,1-15.173.991,27.011,27.011,0,0,1,27.406-10.021A29.6,29.6,0,0,1,758.618,390.049Z" transform="translate(-637.328 -321.286)" opacity="0.2"/>
    <path id="Path_18" data-name="Path 18" d="M780.464,629.44a20.647,20.647,0,0,1-10.642.674,18.817,18.817,0,0,1,19.209-7.024A20.647,20.647,0,0,1,780.464,629.44Z" transform="translate(-657.891 -510.122)" opacity="0.2"/>
    <path id="Path_19" data-name="Path 19" d="M701.96,648.27l.269.139C702.2,648.7,702.138,648.872,701.96,648.27Z" transform="translate(-604.987 -530.068)" fill="#2f2e41"/>
    <path id="Path_20" data-name="Path 20" d="M703.266,646.883c0,.031.007.064.009.095l-.095-.048c0-.029,0-.06.009-.09C703.211,646.453,703.184,646,703.266,646.883Z" transform="translate(-605.938 -528.589)" fill="#2f2e41"/>
    <circle id="Ellipse_24" data-name="Ellipse 24" cx="36.194" cy="36.194" r="36.194" transform="translate(32.505 35.362)" fill="#2f2e41"/>
    <circle id="Ellipse_25" data-name="Ellipse 25" cx="21.919" cy="21.919" r="21.919" transform="translate(49.76 62.437)" fill="#d0cde1"/>
    <path id="Path_21" data-name="Path 21" d="M491.233,581.945l-.026.007-5.1,1.223-10.615,2.548-1.448.348L457.9,589.944l-1.371.331-39.166,9.4a73.54,73.54,0,0,1-7.748-3.489l-.075-.04c-.143-.075-.284-.148-.425-.225q-.466-.245-.928-.5-2.628-1.445-5.122-3.09-.641-.42-1.27-.853c-.134-.093-.267-.185-.4-.278s-.278-.194-.414-.291q-.546-.387-1.084-.782c3.8-6.914,12.863-11.51,21.922-14.025,6.837-1.9,8.341-8.144,8.21-13.7a32.383,32.383,0,0,0-.322-3.787,36.909,36.909,0,0,0-1.314-5.894l21.92.732,2.261,5.211a11.784,11.784,0,0,0-.06,1.724c.172,4.274,2.81,7.038,6.066,8.821.423.231.857.447,1.3.648a34.353,34.353,0,0,0,11.622,2.592,22.371,22.371,0,0,1,5.751.108q.694.106,1.349.253a19.427,19.427,0,0,1,7.078,3.167,20.2,20.2,0,0,1,2.295,1.9A18.224,18.224,0,0,1,491.233,581.945Z" transform="translate(-369.505 -455.579)" fill="#d0cde1"/>
    <path id="Path_22" data-name="Path 22" d="M760.7,683.031l-.278.256a74.47,74.47,0,0,1-6.094,5q-2.133,1.577-4.377,3-.493.314-.992.617-.866.529-1.748,1.034-1.15.661-2.33,1.281c-.317.17-.637.333-.957.5-.467.24-.937.472-1.411.7-.082.04-.163.079-.245.117l-.932-.774,10.95-13.384,2.2-2.691s.879,0,2.9,1.468a28.872,28.872,0,0,1,3.152,2.72C760.593,682.923,760.648,682.976,760.7,683.031Z" transform="translate(-635.687 -553.775)" fill="#d0cde1"/>
    <path id="Path_23" data-name="Path 23" d="M526.97,672.552a2.509,2.509,0,0,1-.123.406,74.45,74.45,0,0,1-6.094,5,26,26,0,0,1-5.684,1.351s.165.829.315,2.261q-.866.529-1.748,1.034-1.151.661-2.33,1.281c-.317.17-.637.333-.957.5-.467.24-.937.472-1.411.7-.082.04-.163.079-.245.117-.309.15-.622.3-.935.441a73.817,73.817,0,0,1-12.665,4.494l-.071.018c-.284.073-.571.143-.857.212-.214.053-.43.1-.646.152a.543.543,0,0,1-.082.02c-.443.1-.886.2-1.333.293-.251.053-.5.106-.754.156-.152.033-.306.062-.458.09l-.573.11c-.106.022-.212.04-.32.057-.242.044-.485.088-.725.13-.41.071-.824.139-1.237.2-.3.046-.6.09-.9.132-.353.051-.705.1-1.06.141-.1.015-.194.026-.291.037l-.377.046c-.254.031-.507.06-.763.086-.132.016-.262.029-.395.042q-.377.04-.754.073c-.324.031-.648.057-.974.084-.4.031-.791.06-1.19.084-.256.015-.511.031-.769.044-.657.035-1.314.06-1.975.077-.328.009-.659.015-.99.02H477.6c-.328,0-.659.007-.99.007a74.73,74.73,0,0,1-10.018-.67q-3.653-.489-7.19-1.327c-.095-.022-.19-.044-.282-.068-.238-.055-.474-.115-.71-.174-.209-.053-.417-.108-.626-.163a73.916,73.916,0,0,1-15.561-5.993l-.075-.04c-.143-.075-.284-.148-.425-.225,12.1-2.819,31.217-7.265,47.808-11.074l1.386-.317c6.128-1.406,11.867-2.716,16.723-3.811l1.477-.331c5.217-1.173,9.268-2.063,11.466-2.508a17.93,17.93,0,0,1,1.794-.315l4.587,7.108Z" transform="translate(-402.107 -543.446)" fill="#2f2e41"/>
    <circle id="Ellipse_26" data-name="Ellipse 26" cx="10.781" cy="10.781" r="10.781" transform="translate(24.804 34.591)" fill="#2f2e41"/>
    <circle id="Ellipse_27" data-name="Ellipse 27" cx="10.781" cy="10.781" r="10.781" transform="translate(91.032 31.511)" fill="#2f2e41"/>
    <path id="Path_24" data-name="Path 24" d="M663.279,244.781a10.781,10.781,0,0,1,9.625-10.717,10.781,10.781,0,1,0,0,21.435A10.781,10.781,0,0,1,663.279,244.781Z" transform="translate(-573.017 -207.109)" fill="#2f2e41"/>
    <path id="Path_25" data-name="Path 25" d="M352.023,306.512a10.781,10.781,0,0,1-.625-14.392,10.781,10.781,0,1,0,15,15.311,10.781,10.781,0,0,1-14.376-.918Z" transform="translate(-328.484 -252.419)" fill="#2f2e41"/>
    <path id="Path_26" data-name="Path 26" d="M491.972,359.777c-12.759,0-23.1,6.034-23.1,13.477,0,3.33,2.079,6.374,5.511,8.725l4.448-3.223-1.209,5.048c.5.233,1.014.458,1.549.666l6.644-7.751v9.523a38.783,38.783,0,0,0,6.161.488c12.759,0,23.1-6.034,23.1-13.477S504.731,359.777,491.972,359.777Z" transform="translate(-423.272 -305.163)" fill="#2f2e41"/>
    <path id="Path_27" data-name="Path 27" d="M674.655,303.876s-1.674,7.7,8.789,10.781Z" transform="translate(-583.623 -261.584)" fill="#2f2e41"/>
    <path id="Path_28" data-name="Path 28" d="M441.632,310.235s3.85,8.61-7.7,12.46Z" transform="translate(-396.035 -266.541)" fill="#2f2e41"/>
    <ellipse id="Ellipse_28" data-name="Ellipse 28" cx="1.827" cy="4.384" rx="1.827" ry="4.384" transform="translate(47.184 85.011) rotate(-15.639)" fill="#d0cde1"/>
    <ellipse id="Ellipse_29" data-name="Ellipse 29" cx="4.384" cy="1.827" rx="4.384" ry="1.827" transform="translate(91.87 89.349) rotate(-86.476)" fill="#d0cde1"/>
  </g>
</svg>
