<svg id="Layer_1" data-name="Layer 1" xmlns="http://www.w3.org/2000/svg" viewBox="0 0 310 310"><defs><style>.cls-1{fill:#809eff;}</style></defs><path class="cls-1" d="M72.16,99.73H9.93a5,5,0,0,0-5,5V304.66a5,5,0,0,0,5,5H72.16a5,5,0,0,0,5-5V104.73A5,5,0,0,0,72.16,99.73Z"/><path class="cls-1" d="M41.07.34a41,41,0,1,0,41,41A41.09,41.09,0,0,0,41.07.34Z"/><path class="cls-1" d="M230.45,94.76c-25,0-43.47,10.75-54.68,23v-13a5,5,0,0,0-5-5H111.18a5,5,0,0,0-5,5V304.66a5,5,0,0,0,5,5h62.09a5,5,0,0,0,5-5V205.74c0-33.33,9.06-46.32,32.29-46.32,25.31,0,27.32,20.82,27.32,48v97.21a5,5,0,0,0,5,5H305a5,5,0,0,0,5-5V195C310,145.43,300.55,94.76,230.45,94.76Z"/></svg>