<?xml version="1.0" encoding="UTF-8"?><svg id="Layer_2" xmlns="http://www.w3.org/2000/svg" viewBox="0 0 295.82 295.16"><defs><style>.cls-1{fill:#fff;}</style></defs><g id="Layer_1-2"><g><path class="cls-1" d="M68.86,94.84H9.47c-2.64,0-4.77,2.14-4.77,4.77v190.78c0,2.64,2.14,4.77,4.77,4.77h59.39c2.64,0,4.77-2.14,4.77-4.77V99.61c0-2.63-2.14-4.77-4.77-4.77Z"/><path class="cls-1" d="M39.19,0C17.58,0,0,17.56,0,39.14s17.58,39.16,39.19,39.16,39.16-17.57,39.16-39.16c0-21.58-17.56-39.14-39.16-39.14Z"/><path class="cls-1" d="M219.91,90.1c-23.85,0-41.48,10.25-52.18,21.9v-12.39c0-2.63-2.14-4.77-4.77-4.77h-56.87c-2.64,0-4.77,2.14-4.77,4.77v190.78c0,2.64,2.14,4.77,4.77,4.77h59.26c2.64,0,4.77-2.14,4.77-4.77v-94.39c0-31.81,8.64-44.2,30.81-44.2,24.15,0,26.07,19.87,26.07,45.84v92.76c0,2.64,2.14,4.77,4.77,4.77h59.28c2.64,0,4.77-2.14,4.77-4.77v-104.65c0-47.3-9.02-95.65-75.91-95.65Z"/></g></g></svg>