<?xml version="1.0" encoding="UTF-8"?><svg id="Layer_2" xmlns="http://www.w3.org/2000/svg" viewBox="0 0 277.55 130.67"><defs><style>.cls-1{fill:#fff;stroke:#8598cd;}.cls-1,.cls-2,.cls-3{stroke-miterlimit:10;}.cls-2{stroke-width:2px;}.cls-2,.cls-3{fill:none;stroke:#809eff;}</style></defs><g id="Layer_1-2"><path class="cls-1" d="M22.74,.5h45.17c38.25,0,67.86,28.09,67.86,64.62,0,34.58-26.37,65.05-67.86,65.05H22.74V.5Zm45.17,123.61c36.52,0,59.86-27.66,59.86-59,0-33.07-26.15-58.57-59.86-58.57H30.73V124.11h37.17ZM46.51,9.58h30.04l6.05,1.08H46.51v-1.08Zm0,4.32h45.6l2.38,1.08H46.51v-1.08Zm0,4.32h53.38l1.51,1.08H46.51v-1.08Zm0,4.97h20.75c27.23,0,43.87,18.37,43.87,41.93,0,25.5-19.02,42.14-43.87,42.14h-20.75V23.19Zm0,88.17h55.32l-1.51,1.08H46.51v-1.08Zm0,4.32h48.41l-2.38,1.08H46.51v-1.08Zm0,4.32h36.52l-4.32,.86H46.51v-.86Zm20.75-18.8c20.31,0,35.87-14.26,35.87-36.09,0-20.1-13.62-35.87-35.87-35.87h-12.75V101.21h12.75Zm15.78,6.05h23.99l-.86,.86h-25.93l2.81-.86ZM105.72,22.33l-.22-.22,1.73,1.3h-23.12l-3.46-1.08h25.07Zm-12.97,80.61h19.02l-1.08,1.08h-19.88l1.95-1.08ZM110.26,26.65l1.08,1.08h-17.72l-1.73-1.08h18.37Zm-11.45,71.96h16.21l-.87,1.08h-17.07l1.73-1.08Zm15.34-67.64l.65,.86h-15.56l-1.08-.86h15.99Zm-11.45,63.54h14.91l-.86,1.08h-15.13l1.08-1.08Zm-.43-59.43h14.48l.86,1.08h-14.26l-1.08-1.08Zm3.67,55.11h14.05l-.65,1.08h-14.26l.87-1.08Zm-.22-50.79h13.62l.43,1.08h-13.4l-.65-1.08Zm2.59,46.68h13.4l-.43,.86h-13.4l.43-.86Zm-.22-42.57h13.18l.43,1.08h-12.97l-.65-1.08Zm1.95,4.32h12.75l.43,1.08h-12.53l-.65-1.08Zm.22,33.93h12.97l-.43,1.08h-12.75l.22-1.08Zm1.51-4.32h12.54l-.43,1.08h-12.54l.43-1.08Zm-.22-25.28h12.54l.22,.86h-12.54l-.22-.86Zm.87,4.11h12.32l.43,1.08h-12.53l-.22-1.08Zm.22,17.07h12.53l-.43,1.08h-12.32l.22-1.08Zm.43-4.32h12.32v1.08h-12.53l.22-1.08Zm0-8.43h12.32v1.08h-12.32v-1.08Zm.22,4.11h12.32v1.08h-12.32v-1.08Z"/><path class="cls-1" d="M160.81,.5h85.8V28.59h-54.03v23.34h49.92v27.66h-49.92v23.34h56.41v27.23h-88.17V.5Zm80.18,123.61v-15.13h-56.4v-35.44h49.92v-15.56h-49.92V22.54h54.03V6.55h-69.8V124.11h72.18Zm-68.29-3.67h66.13v1.08h-67.21l1.08-1.08Zm-.87-110.87h64.62v1.08h-63.54l-1.08-1.08Zm4.32,4.32h60.29v1.08h-59.21l-1.08-1.08Zm1.08,102.22h61.59v1.08h-62.67l1.08-1.08Zm3.24-97.9h55.97v1.08h-54.89l-1.08-1.08Zm1.3,93.58h57.05v1.08h-58.35l1.3-1.08Zm2.81-51h47.76v1.08h-47.76v-1.08Zm0,4.32h47.76v1.08h-47.76v-1.08Zm0,4.32h47.76v1.08h-47.76v-1.08Z"/><polygon class="cls-1" points="250.99 80.46 251.13 51.02 276.55 65.86 250.99 80.46"/><rect class="cls-2" x="123.46" y="-41.14" width="17.61" height="213.76" transform="translate(66.6 198.04) rotate(-90.03)"/><line class="cls-3" x1="232.76" y1="69.67" x2="33.35" y2="69.75"/><line class="cls-3" x1="232.76" y1="65.7" x2="33.35" y2="65.78"/><line class="cls-3" x1="232.76" y1="61.13" x2="33.35" y2="61.21"/><rect class="cls-1" x=".5" y="55.34" width="14.09" height="20.68"/></g></svg>