<svg id="Layer_1" data-name="Layer 1" xmlns="http://www.w3.org/2000/svg" viewBox="0 0 250 150"><defs><style>.cls-1{fill:#8699cd;}.cls-2,.cls-3{fill:none;stroke:#8699cd;stroke-miterlimit:10;}.cls-2{stroke-width:2px;}</style></defs><path class="cls-1" d="M39.66,28.62H73c28.19,0,50,20.7,50,47.62,0,25.48-19.43,47.94-50,47.94H39.66ZM73,119.72c26.92,0,44.12-20.39,44.12-43.48,0-24.37-19.27-43.16-44.12-43.16H45.56v86.64ZM57.18,35.3H79.32l4.46.8H57.18Zm0,3.19H90.79l1.75.8H57.18Zm0,3.19H96.52l1.12.79H57.18Zm0,3.66H72.47c20.07,0,32.33,13.54,32.33,30.9,0,18.79-14,31.06-32.33,31.06H57.18Zm0,65H98l-1.12.8H57.18Zm0,3.19H92.86l-1.75.79H57.18Zm0,3.18H84.1l-3.19.64H57.18Zm15.29-13.85c15,0,26.44-10.52,26.44-26.6,0-14.81-10-26.44-26.44-26.44H63.08v53ZM84.1,107.3h17.68l-.64.63H82Zm16.72-62.6-.16-.16,1.28,1h-17l-2.55-.8Zm-9.55,59.41h14l-.79.8H89.83Zm12.9-56.22.79.79H91.9l-1.27-.79Zm-8.44,53h11.94l-.64.8H94.45ZM107,51.07l.48.64H96l-.79-.64ZM98.59,97.9h11l-.63.79H97.8Zm-.32-43.8H109l.63.8H99.07ZM101,94.71h10.35l-.47.8H100.34Zm-.16-37.43h10l.32.8H101.3Zm1.91,34.41h9.88l-.32.63h-9.87Zm-.16-31.38h9.72l.32.8h-9.56ZM104,63.5h9.39l.32.79h-9.23Zm.16,25h9.55l-.32.8H104Zm1.11-3.18h9.24l-.32.79H105Zm-.16-18.64h9.24l.16.64h-9.24Zm.64,3h9.08l.32.79h-9.24Zm.16,12.58h9.24l-.32.8h-9.08Zm.32-3.19h9.08v.8h-9.24Zm0-6.21h9.08v.8h-9.08Zm.16,3h9.08v.8H106.4Z"/><path class="cls-1" d="M141.42,28.62h63.23v20.7H164.84v17.2h36.79V86.91H164.84v17.2h41.57v20.07h-65Zm59.09,91.1V108.57H158.94V82.45h36.79V71H158.94V44.86h39.82V33.08H147.32v86.64ZM150.18,117h48.74v.8H149.39Zm-.63-81.71h47.62v.8H150.34Zm3.18,3.19h44.44v.8H153.53Zm.8,75.34h45.39v.79H152.73Zm2.39-72.15h41.25v.79H156.71Zm1,69h42v.8h-43Zm2.07-37.59h35.2v.8h-35.2Zm0,3.19h35.2V77h-35.2Zm0,3.18h35.2v.8h-35.2Z"/><polygon class="cls-1" points="207.89 87.54 207.99 65.85 226.72 76.78 207.89 87.54"/><rect class="cls-2" x="113.9" y="-2.07" width="12.98" height="157.54" transform="translate(43.76 197.13) rotate(-90.03)"/><line class="cls-3" x1="194.45" y1="79.59" x2="47.49" y2="79.65"/><line class="cls-3" x1="194.45" y1="76.67" x2="47.49" y2="76.72"/><line class="cls-3" x1="194.45" y1="73.3" x2="47.49" y2="73.36"/><rect class="cls-1" x="23.28" y="69.03" width="10.39" height="15.24"/></svg>