<svg id="Group_8" data-name="Group 8" xmlns="http://www.w3.org/2000/svg" width="133.626" height="133.631" viewBox="0 0 133.626 133.631">
  <path id="Path_2" data-name="Path 2" d="M395.625,178.813a66.587,66.587,0,0,1-5.381,26.31l-.221.51a66.923,66.923,0,0,1-72.8,38.991q-.6-.107-1.2-.221a66.217,66.217,0,0,1-12.086-3.564q-.952-.382-1.89-.793c-.427-.186-.854-.378-1.277-.575a66.819,66.819,0,1,1,94.86-60.657Z" transform="translate(-262 -112)" fill="#d38cd3"/>
  <path id="Path_3" data-name="Path 3" d="M426.248,418.207q-.6-.107-1.2-.221a274.743,274.743,0,0,0-4.21-39.394,146.157,146.157,0,0,0-7.205-26.205,81.563,81.563,0,0,0-3.77-8.271c-3.25-6.138-7.191-11.3-11.971-14.806l.7-.961a41.339,41.339,0,0,1,10.718,12.271q1.426,2.366,2.74,5.049,1.408,2.87,2.686,6.094.815,2.052,1.575,4.246a154.106,154.106,0,0,1,5.626,21.74q.513,2.7.977,5.529A280.333,280.333,0,0,1,426.248,418.207Z" transform="translate(-371.029 -285.584)" opacity="0.2"/>
  <path id="Path_4" data-name="Path 4" d="M414.015,627.33c-.427-.186-.854-.378-1.277-.575a97.048,97.048,0,0,0-2.56-15.337,50.322,50.322,0,0,0-2.334-6.958c-1.583-3.706-3.633-6.857-6.284-8.8l.7-.959c2.775,2.032,4.916,5.244,6.571,9a61.749,61.749,0,0,1,3.936,13.87C413.385,621.069,413.772,624.448,414.015,627.33Z" transform="translate(-373.973 -499.284)" opacity="0.2"/>
  <circle id="Ellipse_15" data-name="Ellipse 15" cx="5.948" cy="5.948" r="5.948" transform="translate(14.267 31.804)" opacity="0.2"/>
  <circle id="Ellipse_16" data-name="Ellipse 16" cx="5.948" cy="5.948" r="5.948" transform="translate(16.182 83.002)" opacity="0.2"/>
  <path id="Path_5" data-name="Path 5" d="M482.383,303.965a26.419,26.419,0,0,0,1.523,13.559,24.076,24.076,0,0,0,4.567-25.768A26.421,26.421,0,0,0,482.383,303.965Z" transform="translate(-438.557 -256.223)" opacity="0.2"/>
  <path id="Path_6" data-name="Path 6" d="M339.188,404.059a26.549,26.549,0,0,0,13.607.889,24.224,24.224,0,0,0-24.578-8.987A26.549,26.549,0,0,0,339.188,404.059Z" transform="translate(-315.128 -339.426)" opacity="0.2"/>
  <path id="Path_7" data-name="Path 7" d="M346.711,643.743a18.517,18.517,0,0,0,9.544.6,16.875,16.875,0,0,0-17.227-6.3A18.517,18.517,0,0,0,346.711,643.743Z" transform="translate(-323.802 -533.772)" opacity="0.2"/>
  <circle id="Ellipse_17" data-name="Ellipse 17" cx="26.047" cy="26.047" r="26.047" transform="translate(40.628 29.514)" fill="#d0cde1"/>
  <path id="Path_8" data-name="Path 8" d="M547.833,460.927s3.256,15.465,3.256,17.093,15.466,8.954,15.466,8.954l13.838-2.442,4.884-14.652s-8.14-12.21-8.14-17.093Z" transform="translate(-491.332 -385.423)" fill="#d0cde1"/>
  <path id="Path_9" data-name="Path 9" d="M490.729,530.291l-.221.51a66.923,66.923,0,0,1-72.8,38.991q-.6-.107-1.2-.221a66.213,66.213,0,0,1-12.086-3.564q-.952-.382-1.89-.793c-.427-.186-.854-.378-1.277-.575a66.727,66.727,0,0,1-10.921-6.381L387.24,549.3l1.736-1.324,3.57-2.726,3.809-2.908.99-.757,14.946-11.41,1.1-.842,7.768-5.93,0,0s8.4,13.689,20.611,9.619a16.837,16.837,0,0,0,11.943-15.741Z" transform="translate(-362.484 -437.168)" fill="#2f2e41"/>
  <path id="Path_10" data-name="Path 10" d="M460.171,228.457s8.27-17.918,24.12-13.783,24.81,10.337,25.5,16.54-.345,15.506-.345,15.506-1.723-12.749-12.749-9.993-28.255.689-28.255.689l-2.757,24.81s-3.1-4.479-6.547-1.723S449.144,233.97,460.171,228.457Z" transform="translate(-416.083 -193.881)" fill="#2f2e41"/>
  <path id="Path_11" data-name="Path 11" d="M391,695.975q-.952-.383-1.89-.793c-.427-.186-.854-.378-1.277-.575A66.98,66.98,0,0,1,370.52,683a23.425,23.425,0,0,1,3.305-3.734h12.21l1.83,6.155Z" transform="translate(-349.069 -567.137)" fill="#2f2e41"/>
  <path id="Path_12" data-name="Path 12" d="M853.645,576.32l10.475,1.85a66.8,66.8,0,0,1-11.22,17.508Z" transform="translate(-736.096 -484.537)" fill="#2f2e41"/>
</svg>
