<svg id="Group_3" data-name="Group 3" xmlns="http://www.w3.org/2000/svg" width="149.387" height="149.393" viewBox="0 0 149.387 149.393">
  <path id="Path_2" data-name="Path 2" d="M411.387,186.694a74.441,74.441,0,0,1-6.015,29.413l-.248.57a74.817,74.817,0,0,1-81.392,43.59q-.673-.119-1.344-.247a74.027,74.027,0,0,1-13.511-3.984q-1.064-.428-2.113-.886c-.477-.208-.955-.422-1.428-.643a74.7,74.7,0,1,1,106.049-67.812Z" transform="translate(-262 -112)" fill="#8865B8"/>
  <path id="Path_3" data-name="Path 3" d="M429.593,428.806q-.673-.119-1.344-.248a307.144,307.144,0,0,0-4.707-44.04,163.4,163.4,0,0,0-8.055-29.3,91.185,91.185,0,0,0-4.214-9.246c-3.633-6.862-8.039-12.638-13.383-16.552l.787-1.074a46.215,46.215,0,0,1,11.982,13.719q1.594,2.645,3.063,5.644,1.575,3.209,3,6.813.912,2.294,1.761,4.747a172.289,172.289,0,0,1,6.289,24.3q.573,3.016,1.092,6.181A313.4,313.4,0,0,1,429.593,428.806Z" transform="translate(-367.86 -280.54)" opacity="0.2"/>
  <path id="Path_4" data-name="Path 4" d="M415.484,631.178c-.477-.208-.955-.422-1.428-.643a108.5,108.5,0,0,0-2.862-17.146,56.256,56.256,0,0,0-2.61-7.779c-1.77-4.143-4.062-7.666-7.025-9.838l.787-1.072c3.1,2.272,5.5,5.863,7.346,10.064a69.033,69.033,0,0,1,4.4,15.507C414.779,624.18,415.213,627.956,415.484,631.178Z" transform="translate(-370.719 -488.03)" opacity="0.2"/>
  <circle id="Ellipse_15" data-name="Ellipse 15" cx="6.649" cy="6.649" r="6.649" transform="translate(15.949 35.555)" opacity="0.2"/>
  <circle id="Ellipse_16" data-name="Ellipse 16" cx="6.649" cy="6.649" r="6.649" transform="translate(18.09 92.793)" opacity="0.2"/>
  <path id="Path_5" data-name="Path 5" d="M482.422,305.4a29.535,29.535,0,0,0,1.7,15.158,26.916,26.916,0,0,0,5.106-28.807A29.537,29.537,0,0,0,482.422,305.4Z" transform="translate(-433.426 -252.032)" opacity="0.2"/>
  <path id="Path_6" data-name="Path 6" d="M340.482,405.074a29.681,29.681,0,0,0,15.212.994,27.082,27.082,0,0,0-27.477-10.047A29.681,29.681,0,0,0,340.482,405.074Z" transform="translate(-313.584 -332.817)" opacity="0.2"/>
  <path id="Path_7" data-name="Path 7" d="M347.617,644.458a20.7,20.7,0,0,0,10.67.676,18.866,18.866,0,0,0-19.259-7.042A20.7,20.7,0,0,0,347.617,644.458Z" transform="translate(-322.006 -521.515)" opacity="0.2"/>
  <circle id="Ellipse_17" data-name="Ellipse 17" cx="29.119" cy="29.119" r="29.119" transform="translate(45.421 32.995)" fill="#d0cde1"/>
  <path id="Path_8" data-name="Path 8" d="M547.833,461.887s3.64,17.29,3.64,19.11,17.29,10.01,17.29,10.01l15.47-2.73,5.46-16.38s-9.1-13.65-9.1-19.11Z" transform="translate(-484.668 -377.477)" fill="#d0cde1"/>
  <path id="Path_9" data-name="Path 9" d="M502.935,531.825l-.247.57a74.817,74.817,0,0,1-81.392,43.59q-.673-.119-1.344-.247a74.028,74.028,0,0,1-13.511-3.984q-1.064-.428-2.113-.886c-.477-.208-.955-.422-1.428-.643a74.6,74.6,0,0,1-12.21-7.133l-3.452-10.013,1.94-1.481,3.991-3.047,4.258-3.251,1.107-.846L415.246,531.7l1.233-.941,8.685-6.63,0,0s9.392,15.3,23.042,10.753a18.823,18.823,0,0,0,13.352-17.6Z" transform="translate(-359.564 -427.718)" fill="#2f2e41"/>
  <path id="Path_10" data-name="Path 10" d="M460.893,230.156s9.245-20.032,26.965-15.409,27.736,11.557,28.506,18.491-.385,17.335-.385,17.335-1.926-14.253-14.253-11.171-31.588.77-31.588.77l-3.082,27.736s-3.467-5.008-7.319-1.926S448.566,236.319,460.893,230.156Z" transform="translate(-411.605 -191.502)" fill="#2f2e41"/>
  <path id="Path_11" data-name="Path 11" d="M393.416,697.946q-1.064-.428-2.113-.886c-.477-.208-.955-.422-1.428-.643a74.88,74.88,0,0,1-19.356-12.972,26.187,26.187,0,0,1,3.695-4.174h13.65l2.046,6.882Z" transform="translate(-346.539 -553.911)" fill="#2f2e41"/>
  <path id="Path_12" data-name="Path 12" d="M853.733,576.32l11.71,2.068A74.681,74.681,0,0,1,852.9,597.961Z" transform="translate(-722.319 -473.711)" fill="#2f2e41"/>
</svg>
